<svg width="1003" height="160" viewBox="0 0 1003 160" fill="none" xmlns="http://www.w3.org/2000/svg">
<g clip-path="url(#clip0)">
<path fill-rule="evenodd" clip-rule="evenodd" d="M3.09526 153.495V123.229C20.2656 128.651 35.4591 131.362 48.6756 131.362C66.9232 131.362 76.0485 126.523 76.0485 116.851C76.0485 113.246 74.7205 110.216 72.0585 107.763C69.3364 105.16 62.3645 101.553 51.161 96.9309C31.0589 88.638 17.9507 81.5658 11.8535 75.7163C3.95082 67.995 0 58.2582 0 46.4916C0 31.3389 5.75722 19.7897 17.2636 11.8531C28.6427 3.98596 43.46 0.0563965 61.7387 0.0563965C71.8098 0.0563965 86.3864 1.91602 105.452 5.6403V34.7553C91.266 29.0697 78.0976 26.233 65.9312 26.233C48.799 26.233 40.2333 30.9525 40.2333 40.4126C40.2333 43.9487 41.9585 46.8327 45.4138 49.0687C48.2874 50.878 56.2051 54.6999 69.1498 60.5465C87.7886 68.8514 100.197 76.0705 106.379 82.2109C113.715 89.4944 117.39 98.9193 117.39 110.471C117.39 127.076 110.192 139.742 95.8045 148.47C84.1487 155.547 69.0345 159.071 50.471 159.071C34.7941 159.071 18.9988 157.219 3.09526 153.495Z" fill="#009999"/>
<path fill-rule="evenodd" clip-rule="evenodd" d="M141.486 2.72095H184.154V155.976H141.486V2.72095Z" fill="#009999"/>
<path fill-rule="evenodd" clip-rule="evenodd" d="M223.284 155.976V2.72095H332.716V30.4402H264.407V65.0455H323.867V90.3295H264.407V126.698H334.476V155.976H223.284Z" fill="#009999"/>
<path fill-rule="evenodd" clip-rule="evenodd" d="M362.33 155.976V2.72095H417.651L456.085 100.644L495.482 2.72095H548.029V155.976H507.574V47.4676L462.776 157.532H436.327L392.392 47.4676V155.976H362.33Z" fill="#009999"/>
<path fill-rule="evenodd" clip-rule="evenodd" d="M587.167 155.976V2.72095H696.597V30.4402H628.294V65.0455H687.752V90.3295H628.294V126.698H698.369V155.976H587.167Z" fill="#009999"/>
<path fill-rule="evenodd" clip-rule="evenodd" d="M726.443 155.976V2.72095H775.895L828.36 105.313V2.72095H858.414V155.976H810.366L756.509 52.003V155.976H726.443Z" fill="#009999"/>
<path fill-rule="evenodd" clip-rule="evenodd" d="M888.705 153.496V123.23C905.73 128.652 920.922 131.363 934.294 131.363C952.543 131.363 961.657 126.524 961.657 116.852C961.657 113.247 960.365 110.217 957.792 107.764C955.056 105.161 948.055 101.554 936.784 96.9319C916.742 88.7075 903.621 81.6383 897.467 75.7173C889.569 68.0645 885.625 58.2914 885.625 46.388C885.625 31.3007 891.368 19.7897 902.887 11.8531C914.249 3.98596 929.083 0.0563965 947.364 0.0563965C957.641 0.0563965 970.959 1.69363 987.293 4.98319L991.065 5.6403V34.7553C976.877 29.0697 963.671 26.233 951.439 26.233C934.372 26.233 925.859 30.9525 925.859 40.4126C925.859 43.9487 927.576 46.8328 931.022 49.0687C933.76 50.8086 941.71 54.6325 954.871 60.5465C973.369 68.8514 985.751 76.0705 991.987 82.2109C999.334 89.4944 1003 98.9193 1003 110.471C1003 127.076 995.844 139.742 981.53 148.47C969.806 155.547 954.654 159.071 936.093 159.071C920.399 159.072 904.597 157.22 888.705 153.496Z" fill="#009999"/>
</g>
<defs>
<clipPath id="clip0">
<rect width="1003" height="160" fill="white"/>
</clipPath>
</defs>
</svg>
