<svg xmlns="http://www.w3.org/2000/svg" viewBox="0 0 600 263"><g id="Layer_2" data-name="Layer 2"><g id="layer"><path d="M101.3,262.2c-21,0-35.5-14.6-35.5-35.6,0-20.4,12.8-35.8,33.8-35.8a51.39,51.39,0,0,1,20,4.7l-4.2,10.3c-5.1-2.2-10.4-4-16-3.9-13.4,0-20,11.2-20,23.5,0,14.8,7.9,25.7,23.5,25.7a32.39,32.39,0,0,0,13.7-3.2l3.2,9.7a41.17,41.17,0,0,1-18.5,4.6"/><path d="M147.1,262.3c-15.5,0-25.4-11.4-25.4-26.5s9.9-26.5,25.4-26.5,25.4,11.3,25.4,26.5-9.9,26.5-25.4,26.5m0-42.4c-9,0-12,8.3-12,16s2.9,15.9,12,15.9,12-8.2,12-15.9-3-16-12-16"/><path d="M212.2,261.2V229.4c0-6.2-4.1-9.3-10-9.3a30.09,30.09,0,0,0-10.2,2.2,21,21,0,0,1,.2,2.1v36.8H180V221.6a67.56,67.56,0,0,0-.7-7.1c7.1-2.5,15.5-5.1,23-5.1,12.4,0,22.1,4.1,22.1,18.1v33.7Z"/><path d="M252.4,263c-9.2,0-15.6-4.2-15.6-14.1v-28l-5.8-.3V211l5.8-.3V196.6H249v13.9h14.2v10.6H249V248c0,3.1,1.6,4.4,4.7,4.4a27.4,27.4,0,0,0,9-2l3.3,9.8c-4.5,1.5-8.8,2.8-13.6,2.8"/><path d="M299.5,221a26.26,26.26,0,0,0-6.7-1,31.29,31.29,0,0,0-9.1,1.3s.1.7.1,1v38.9H271.6V222.6a62.54,62.54,0,0,0-.9-7.6c7.3-3,15.1-5.6,23.1-5.6a39.5,39.5,0,0,1,9.3,1.1Z"/><path d="M328,262.3c-15.5,0-25.4-11.4-25.4-26.5s9.9-26.5,25.4-26.5,25.5,11.3,25.4,26.5-9.9,26.5-25.4,26.5m0-42.4c-9,0-12,8.3-12,16s2.9,15.9,12,15.9,12-8.2,12-15.9-3-16-12-16"/><polygon points="373 186.8 360.8 186.8 360.8 239 360.8 261.2 373 261.2 373 186.8"/><path d="M396.6,262.3a48.2,48.2,0,0,1-16.7-3.3l3.5-9.5c3.5,1.5,8.3,3,12.2,3,3.7,0,7.7-1.1,7.7-5.6,0-9-22.1-6.3-22.1-22.9,0-10.4,10.8-14.6,18.8-14.6a36.14,36.14,0,0,1,14.6,3l-3.4,9.4a36.07,36.07,0,0,0-11.2-2.3c-3,0-6.3.9-6.3,4.6,0,8.5,23.1,4.7,23.1,23,0,11.3-11,15.2-20.2,15.2"/><path d="M13.3,176.3c-2.9,1-7.2,2.2-11.1,3.2L0,168.5a53,53,0,0,0,7.6-1.8c7-2.5,7.6-7.5,7.6-15.7V99.3H27.8V149c0,13.8-2,22.8-14.5,27.3"/><path d="M60.8,169.2c-15.5,0-25.4-11.3-25.4-26.4s9.9-26.5,25.4-26.5,25.5,11.3,25.5,26.5-10,26.4-25.5,26.4m0-42.3c-9,0-11.9,8.3-11.9,16s3,15.9,11.9,15.9c9.1,0,12-8.2,12-15.9s-2.9-16-12-16"/><path d="M126.5,168.1v-32c0-5.6-3.4-9.2-8.5-9.2-4,0-8.3,1.7-11.7,3.7v37.5H94.2V93.7h12.1v26a38.54,38.54,0,0,1,15-3.3c11.3,0,17.3,6.7,17.3,18v33.8H126.5Z"/><path d="M181.2,168.1V136.3c0-6.2-4-9.3-10-9.3a29.59,29.59,0,0,0-10.2,2.2,21,21,0,0,1,.2,2.1v36.8H149V128.5a67.56,67.56,0,0,0-.7-7.1c7.1-2.5,15.5-5.1,23-5,12.4,0,22.1,4,22.1,18v33.7Z"/><path d="M217.1,169.2a48.2,48.2,0,0,1-16.7-3.3l3.6-9.5c3.5,1.5,8.3,3,12.2,3s7.7-1.1,7.7-5.6c0-9-22.1-6.3-22.1-22.9,0-10.4,10.7-14.6,18.8-14.6a36.14,36.14,0,0,1,14.6,3l-3.4,9.4a35.61,35.61,0,0,0-11.1-2.4c-3.1,0-6.3.9-6.3,4.6,0,8.5,23.1,4.7,23.1,23-.2,11.4-11.1,15.3-20.4,15.3"/><path d="M268.1,169.2c-15.5,0-25.5-11.3-25.5-26.4s10-26.4,25.5-26.5,25.4,11.3,25.4,26.5-9.9,26.4-25.4,26.4m0-42.3c-9,0-11.9,8.3-11.9,16s2.9,15.9,11.9,15.9,11.9-8.2,11.9-15.9-2.8-16-11.9-16"/><path d="M333.7,168.1V136.3c0-6.2-4-9.3-10-9.3a30.09,30.09,0,0,0-10.2,2.2,21,21,0,0,1,.2,2.1v36.8H301.6V128.5a67.56,67.56,0,0,0-.7-7.1c7.1-2.5,15.5-5.1,23-5.1,12.4,0,22.1,4,22.1,18V168H333.7Z"/><path d="M573.2,28.3c-1.3-1.4-2.7-2.7-4.1-4-14.9,7-27.1,15.8-36.5,26.1A223.43,223.43,0,0,1,535,75.3c1.3,29.4-3,54.1-11.6,74a91,91,0,0,0,26.4,28.4,89.1,89.1,0,0,0,9.3-5.7,99.65,99.65,0,0,1-24.2-71.5c1.8-28.5,16-53.8,38.3-72.2"/><path d="M551.3,11.5l-5.1-2.7a130.81,130.81,0,0,0-20.1,11.4c1.3,4.3,2.4,8.7,3.4,13.1a280.25,280.25,0,0,1,21.8-21.8"/><path d="M523.8,187.1a91.45,91.45,0,0,0,11.7-3.1,178.89,178.89,0,0,1-17.8-22.9,107.44,107.44,0,0,1-8.9,13.4,131.51,131.51,0,0,0,15,12.6"/><path d="M597.5,72.6c-9.7,8.3-16.3,18.9-18.5,31.2-2.4,13.1.9,26.3,8.2,37.9A94.54,94.54,0,0,0,600,94.2a91.17,91.17,0,0,0-2.5-21.6"/><path d="M568.5,102.1c1.9-18.1,8.7-37,20.9-51.5-1-1.8-1.9-3.6-3-5.3-23.4,12.8-38.5,33-40.7,57.8-2,21.9,8.3,43.9,25.1,59.5a92.19,92.19,0,0,0,7.4-7.9c-8.2-15.5-11.8-33.2-9.7-52.6"/><path d="M439.8,26.2a94.36,94.36,0,0,0-28.7,61.5c15.8-15.1,25.6-39.3,28.7-61.5"/><path d="M458.4,12.2c-1.5.8-2.9,1.7-4.3,2.6-9,42.6-23.9,70.8-42.4,92.4a108.83,108.83,0,0,0,3,14c38.7-23.7,46.9-76.8,43.7-109"/><path d="M535.4,75.3A223.12,223.12,0,0,0,519.5.7,48.7,48.7,0,0,0,514,.1c8.5,71.7.2,140.8-41.7,182.8a93.82,93.82,0,0,0,23.8,5.5c25.8-22.6,41.6-60.3,39.3-113.1"/><path d="M498.5,0c-1.8.1-3.6.3-5.4.5,1.7,46.7-6.2,124.1-52.3,162.9a97.52,97.52,0,0,0,13.9,10.8C514.5,133.5,514.2,54.1,498.5,0"/><path d="M477.6,3.9c-1.6.5-3.2,1-4.7,1.6-2.7,48-15.6,99.2-51.7,131.9a102.4,102.4,0,0,0,8.1,13.1c49-29.6,59-99.6,48.3-146.6"/></g></g></svg>