<svg width="540" height="160" viewBox="0 0 540 160" fill="none" xmlns="http://www.w3.org/2000/svg">
<rect width="540" height="160" fill="white"/>
<g clip-path="url(#clip0)">
<path d="M132.316 3.92993e-05C82.0234 3.92993e-05 46 31.9299 46 78.0117C46 130.76 88.3392 160 137.111 160H406.936C456.76 160 494.772 124.444 494.655 78.3626C494.538 40.3509 465.415 -0.11692 410.094 3.92993e-05H132.316Z" fill="white"/>
<path d="M121.906 70.6433L116.994 88.538C116.76 89.5906 115.942 91.2281 117.813 92.3977L117.579 94.8538C111.029 94.269 103.778 93.9181 100.386 94.7368L95.9415 94.269L111.731 38.1286C112.199 36.3743 112.55 34.9708 112.433 33.3333C112.316 32.8655 111.731 32.1637 111.38 32.0468L111.731 29.8246C115.006 30.0585 121.906 31.1111 128.222 29.8246L133.368 30.2924C133.368 30.2924 132.199 34.5029 131.497 36.9591L123.661 65.0292C128.924 61.1696 138.866 56.1403 144.83 55.4386L149.509 38.1286C149.977 36.6082 150.561 33.5672 150.327 32.7485C149.977 32.3977 149.509 32.1637 149.158 31.9298L149.626 29.5906C152.433 29.9415 161.322 30.6433 166.702 29.5906L171.146 30.0585C171.146 30.0585 169.977 34.269 169.275 36.7251L161.439 64.4444L155.006 88.1871C154.889 89.3567 153.719 90.8772 155.825 92.1637L155.357 94.6199C149.041 93.8012 141.556 93.6842 138.164 94.5029L133.836 94.0351L142.374 63.3918C137.111 63.6257 127.988 66.1988 121.906 70.6433Z" fill="black"/>
<path d="M406.468 55.6725C409.158 59.7661 408.222 64.9123 407.17 68.8889H374.538C372.901 74.269 371.497 81.8713 376.643 86.7836C381.673 90.7602 388.807 88.8889 393.018 86.7836C395.591 85.614 397.93 84.2105 400.152 82.2222C401.088 83.1579 403.193 85.614 403.193 85.614C394.889 92.1637 383.778 98.1286 370.678 95.5555C364.246 94.7368 357.93 89.5906 356.175 84.6784C352.784 72.1637 360.269 60.117 372.082 53.6842C381.088 49.0058 399.333 46.3158 406.468 55.6725ZM385.298 54.6199C379.216 55.7895 376.643 61.0526 375.591 64.7953C380.62 64.7953 386.468 64.7953 389.275 64.7953C390.328 62.6901 391.38 59.4152 390.327 57.076C389.275 55.2047 387.754 54.386 385.298 54.6199Z" fill="black"/>
<path d="M219.918 57.4269C226.117 66.5497 221.088 81.8713 210.211 89.7076C203.544 94.6199 195.825 96.6082 186.351 96.3743C181.088 96.3743 175.24 94.5029 171.497 91.462C166.702 87.8363 164.83 80.2339 165.532 76.9591C167.404 64.0936 178.982 52.3977 194.889 50.1754C203.427 49.0058 214.772 50.6433 219.918 57.4269ZM197.345 54.269C194.187 55.3216 191.029 58.2456 188.69 62.924C184.947 70.5263 181.789 80.7018 183.544 88.7719C184.597 91.5789 187.287 92.2807 189.275 91.8129C194.889 90.5263 200.386 81.1696 202.608 74.8538C203.778 71.1111 206.702 61.6374 203.427 55.7895C202.14 54.269 200.386 53.5672 197.345 54.269Z" fill="black"/>
<path d="M278.865 46.6667C279.918 44.6784 276.292 42.3392 273.368 42.3392C262.257 41.9883 255.357 53.5673 249.275 61.2865L249.041 61.4035C249.041 61.4035 250.327 56.3743 251.029 53.9181L247.52 53.3333C240.62 54.7368 233.018 53.4503 231.38 53.3333L231.029 55.3216C233.368 56.4912 232.199 58.1287 231.965 60L222.608 94.269L226.936 94.7368C228.222 94.152 233.953 94.152 235.591 94.152L244.129 94.8538L244.363 92.6316C242.725 91.5789 243.31 89.9415 243.661 88.3041C243.661 88.3041 248.69 68.3041 250.795 65.1462C255.591 54.5029 269.509 49.0058 266.819 58.7134C267.053 58.8304 267.52 59.2982 267.52 59.2982C268.105 58.9474 276.994 50.2924 278.865 46.6667Z" fill="black"/>
<path d="M433.485 65.1462L440.386 40.3509C441.088 37.7778 442.257 33.5673 442.257 33.5673L437.696 33.0994C430.444 34.386 425.064 33.2164 420.62 32.8655L420.269 35.3216C420.503 35.3216 420.971 35.6725 421.439 36.2573C422.023 36.8421 420.971 40.117 420.62 41.6374L405.883 94.386L410.678 94.8538C414.07 94.0351 421.088 94.1521 427.404 94.9708L427.871 92.8655C426.351 91.9298 426.585 90.4094 426.819 89.5907L433.485 65.1462Z" fill="black"/>
<path d="M283.427 53.8012C280.386 55.6725 268.807 62.1053 267.52 62.5731C267.403 62.924 267.287 64.2105 267.287 64.2105C268.105 64.5614 268.573 65.3801 268.222 66.6667C265.883 75.4386 260.62 94.1521 260.62 94.1521L265.064 94.7368C266.585 94.0351 273.485 93.9181 282.257 94.8538L282.608 92.6316L281.906 92.0468C280.971 91.2281 281.439 90.0585 281.906 87.9532L286 73.2164C287.287 69.5906 287.871 61.7544 295.24 57.193C296.643 56.6082 297.813 56.4912 298.632 56.6082C303.427 57.193 301.088 63.5088 300.503 65.848L293.485 91.345L292.667 94.1521L296.994 94.7368C300.971 93.6842 308.456 94.269 314.187 94.8538L314.538 92.6316L314.07 92.2807C313.134 91.6959 313.018 90.7602 313.953 87.9532C313.953 87.9532 318.281 71.579 319.918 66.0819C320.971 62.2222 325.532 55.2047 331.614 56.7252C333.368 57.3099 334.538 59.1813 333.485 63.2749L324.947 94.269L329.392 94.7368C334.187 93.5673 341.556 94.386 346.585 94.8538L346.936 92.6316C346.585 92.3977 346.234 92.1637 346 91.8129C345.298 90.7602 346.117 88.8889 346.468 87.0175C346.468 87.0175 352.55 66.0819 352.316 60.8187C352.199 58.4795 351.497 55.6725 348.924 53.0994C346.351 50.2924 342.608 49.8246 340.503 49.4737C330.795 48.3041 322.374 54.5029 319.099 58.9474C319.099 58.9474 318.398 55.9064 317.462 54.6199C316.175 52.6316 313.368 50.8772 310.795 50.0585C300.269 47.2515 294.772 52.9825 289.158 58.9474L290.444 54.8538C291.38 51.1111 289.392 50.1754 283.427 53.8012Z" fill="black"/>
<path d="M281.439 51.1111C289.626 43.3918 297.93 34.9707 301.088 26.9006C302.257 23.9766 302.959 20.1169 302.257 16.0234C301.205 9.47368 298.164 8.88888 296.292 9.23976C295.357 9.35672 293.368 10.4093 293.018 12.7485C291.965 10.7602 288.573 9.35672 286 11.5789C286 11.5789 283.778 13.4503 284.947 17.193C282.257 16.2573 279.45 18.1286 278.866 20.5848C278.515 23.1579 279.684 25.4971 282.959 26.3158C286.819 27.2515 291.965 32.2807 287.053 41.9883C285.883 44.6784 281.322 49.5906 280.854 50.2924C280.386 50.6433 280.854 51.6959 281.439 51.1111Z" fill="black"/>
<path d="M322.959 119.415C324.596 113.333 322.608 111.228 320.386 111.579C318.982 111.93 317.462 112.865 316.409 115.205C314.655 118.947 312.667 123.509 314.07 126.667C314.772 128.421 317.345 127.953 318.398 127.018C319.45 126.082 321.906 124.211 322.725 120.585L322.959 119.415ZM325.064 111.462L327.17 104.211C327.403 103.509 327.871 101.988 327.52 101.754C327.287 101.52 327.053 101.287 327.053 101.287L327.17 100.117C329.158 100.234 331.614 100.819 334.889 100.234L336.994 100.468C336.994 100.468 336.409 102.456 336.175 103.743L332.667 116.842L329.509 128.304C329.392 128.772 329.275 129.474 329.977 129.825L329.743 130.877C326.819 130.526 323.661 130.409 322.14 130.76H320.503L321.789 125.731C320.269 129.006 316.76 131.111 314.304 131.111C311.731 131.111 309.977 130.409 308.456 128.889C306.936 127.251 306.117 123.392 306.351 121.403C307.287 115.088 311.38 109.708 318.982 108.655C320.737 108.421 324.129 109.006 325.064 111.462Z" fill="black"/>
<path d="M336.76 126.082C339.099 127.602 341.205 128.304 344.479 128.421C348.105 128.655 350.444 127.602 350.912 125.614C351.731 122.456 337.696 121.871 339.567 115.673C340.269 113.099 342.023 111.462 344.713 110.175C347.52 108.889 350.444 108.655 353.134 108.655C355.825 108.655 358.515 109.006 361.088 109.591L359.801 113.45C358.398 112.281 356.058 111.579 353.719 111.579C352.667 111.579 348.573 111.696 348.105 113.918C347.754 115.439 350.678 116.14 351.848 116.491C353.602 117.076 355.474 117.661 356.877 118.713C358.748 120 360.035 121.637 359.333 123.977C357.462 130.292 349.86 131.579 344.246 131.579C341.322 131.579 338.281 130.877 335.474 130.292L336.76 126.082Z" fill="black"/>
<path d="M299.918 112.164C302.842 116.608 300.503 124.094 295.24 127.953C291.965 130.409 288.339 131.345 283.778 131.228C281.205 131.228 278.398 130.292 276.643 128.772C274.304 127.018 273.485 123.275 273.836 121.754C274.772 115.439 280.269 109.708 287.871 108.655C291.965 108.07 297.462 108.889 299.918 112.164ZM289.041 110.643C287.52 111.228 286 112.632 284.947 114.854C283.193 118.596 281.672 123.626 282.491 127.485C283.076 128.889 284.246 129.24 285.298 129.006C287.988 128.421 290.678 123.86 291.731 120.702C292.316 118.83 293.719 114.269 292.082 111.345C291.38 110.643 290.561 110.292 289.041 110.643Z" fill="black"/>
<path d="M238.632 111.696C238.632 111.696 233.017 111.696 227.871 111.696L229.977 104.211C229.977 104.211 238.515 104.211 240.035 104.211C241.555 104.211 242.959 105.614 243.076 106.433H244.363L245.883 100.351C245.883 100.351 225.415 100.468 220.971 100.234L220.737 101.287C220.854 101.404 221.088 101.52 221.322 101.637C221.439 101.988 221.205 103.509 220.971 104.211L213.836 130.526L215.824 130.76C217.345 130.409 220.854 130.409 223.778 130.877L224.012 129.708C222.959 129.123 223.544 128.421 223.661 127.836L227.17 115.439H233.017C234.538 115.439 235.941 116.842 236.058 117.661H237.345L238.632 111.696Z" fill="black"/>
<path d="M267.637 112.164C270.561 116.608 268.222 124.094 262.959 127.953C259.684 130.409 256.059 131.345 251.497 131.228C248.924 131.228 246.117 130.292 244.363 128.772C242.023 127.018 241.205 123.275 241.556 121.754C242.491 115.439 247.988 109.708 255.591 108.655C259.684 108.07 265.181 108.889 267.637 112.164ZM256.76 110.643C255.24 111.228 253.719 112.632 252.55 114.854C250.795 118.596 249.275 123.626 250.094 127.485C250.678 128.889 251.848 129.24 252.901 129.006C255.591 128.421 258.281 123.86 259.333 120.702C259.918 118.83 261.322 114.269 259.684 111.345C259.099 110.643 258.281 110.292 256.76 110.643Z" fill="black"/>
<path d="M168.339 150.409H406.117C449.626 150.409 485.064 120.936 485.064 78.8304C485.064 42.2222 456.76 9.82457 411.614 9.70761H333.602C335.941 10.0585 337.345 13.9181 335.941 15.0877H406.585C452.667 15.0877 475.474 42.4561 475.474 78.5965C475.474 112.047 446.702 137.076 405.532 137.076H196.76C187.053 143.041 183.661 145.614 168.339 149.708C167.754 149.591 167.871 150.409 168.339 150.409Z" fill="black"/>
<path d="M161.556 136.257C151.965 137.31 150.327 137.076 132.784 137.076C98.5146 137.076 65.1813 115.322 65.1813 78.9474V78.5965C65.1813 35.5556 96.1754 14.8538 132.433 14.8538H279.918C279.216 12.3977 280.62 10.2924 282.257 9.47369H130.795C85.0643 9.59065 55.3567 39.7661 55.3567 78.7135C55.3567 126.667 95.8245 150.409 134.538 150.409C149.86 150.409 160.971 147.485 169.509 144.678C183.778 140 197.579 129.708 210.327 118.363C211.38 117.31 210.561 116.608 209.392 117.427C194.538 128.304 175.123 134.737 161.556 136.257Z" fill="black"/>
<path d="M315.357 2.10525C315.357 2.10525 311.614 1.98829 311.263 6.31578C311.263 6.31578 307.637 3.04093 304.714 6.08186C303.895 7.13449 304.129 8.30408 304.48 9.35672C304.48 9.35672 311.029 19.883 302.959 31.9298C302.842 32.0468 302.842 32.1637 302.725 32.1637C301.79 33.5672 301.673 34.152 303.544 32.6316C304.947 31.5789 306.351 30.4093 306.351 30.4093C321.556 18.1286 328.807 16.2573 328.807 16.2573C329.626 16.0234 330.445 15.7895 330.912 14.9707C331.497 13.8012 330.561 12.6316 329.743 12.1637C329.743 12.1637 328.456 11.345 326.351 11.462C326.351 11.462 329.041 8.07017 326.117 5.38011C326.117 5.38011 323.193 3.3918 320.152 5.73098C320.152 5.9649 319.45 1.98829 315.357 2.10525Z" fill="black"/>
<path d="M299.216 41.8714C300.737 40.9357 302.14 40.117 303.31 39.5322C314.889 33.8012 319.45 38.4795 319.45 38.4795C323.427 41.0526 322.374 45.0293 322.374 45.0293C325.883 46.0819 328.339 44.2105 329.041 42.6901C329.977 40.7018 329.626 38.9474 329.626 38.9474C335.123 39.5322 336.175 35.0877 336.175 35.0877C337.111 30.6433 332.901 29.1228 332.901 29.1228C338.398 26.3158 336.526 21.7544 333.017 21.2866C329.626 20.9357 326.351 22.4561 323.427 23.8597C319.099 26.0819 306.936 34.6199 298.632 41.4035C297.813 42.1053 298.047 42.5731 299.216 41.8714Z" fill="black"/>
</g>
<defs>
<clipPath id="clip0">
<rect width="448.655" height="160" fill="white" transform="translate(46)"/>
</clipPath>
</defs>
</svg>
